PathFileType	4	(X/Y/Z)	D:\telocate\uwb03-Unnamed.trc
DataRate	CameraRate	NumFrames	NumMarkers	Units	OrigDataRate	OrigDataStartFrame	OrigNumFrames
100.00	100.00	      472	0	mm	100.00	1	      9968
Frame#	Time	
		

1	0.000	
2	0.010	
3	0.020	4158.41943	2235.82251	1119.02893	
4	0.030	4158.54541	2234.61426	1119.98682	
5	0.040	4158.49756	2234.46338	1120.05615	
6	0.050	4157.65576	2232.90063	1120.33655	
7	0.060	4157.47314	2232.73438	1120.49573	
8	0.070	
9	0.080	
10	0.090	
11	0.100	4156.89209	2231.34692	1120.20752	
12	0.110	4156.81250	2230.99097	1119.70044	
13	0.120	4156.71826	2230.85376	1119.82910	
14	0.130	4156.68506	2230.80005	1119.79736	
15	0.140	4155.74609	2231.59888	1118.07800	
16	0.150	4156.31982	2230.64990	1119.90869	
17	0.160	4156.28320	2230.64233	1119.94104	
18	0.170	4154.10498	2232.49390	1117.72510	
19	0.180	4154.70996	2231.34497	1118.34216	
20	0.190	4154.42871	2232.50464	1119.30078	
21	0.200	4154.95898	2230.64209	1119.20190	
22	0.210	4158.49121	2232.25977	1115.99365	
23	0.220	4158.01123	2231.75146	1116.41089	
24	0.230	4157.62939	2231.50171	1116.21240	
25	0.240	4158.12061	2230.75000	1117.38245	
26	0.250	4158.10400	2230.72681	1117.38818	
27	0.260	4158.12354	2230.61572	1117.37451	
28	0.270	4159.19238	2228.58325	1117.24072	
29	0.280	4159.14111	2228.57739	1117.22791	
30	0.290	
31	0.300	4158.16602	2230.54541	1117.36548	
32	0.310	
33	0.320	4159.09961	2228.50903	1117.29956	
34	0.330	4159.10449	2228.54468	1117.25830	
35	0.340	
36	0.350	4158.13330	2230.52612	1117.38318	
37	0.360	
38	0.370	4158.11279	2230.58545	1117.39636	
39	0.380	
40	0.390	4154.53955	2228.48145	1119.49963	
41	0.400	4153.67334	2230.41968	1118.37793	
42	0.410	4154.24561	2231.14624	1118.28857	
43	0.420	4157.69727	2233.68262	1115.52478	
44	0.430				4155.34229	2230.39697	1119.40894	
45	0.440				4155.54492	2230.77759	1119.82227	
46	0.450				4155.64258	2230.94263	1119.72607	
47	0.460				4156.43896	2231.46191	1120.30261	
48	0.470	
49	0.480	
50	0.490	4156.67041	2233.39453	1119.29150	
51	0.500	4157.07178	2234.57227	1119.25000	
52	0.510	4157.17578	2234.96118	1119.02625	
53	0.520	
54	0.530	
55	0.540	4158.00586	2237.00928	1119.40381	
56	0.550	4157.95703	2238.42554	1118.46912	
57	0.560	
58	0.570	4159.66553	2242.01733	1118.16162	
59	0.580	
60	0.590	
61	0.600	
62	0.610	
63	0.620	4161.96045	2247.98779	1118.61890	
64	0.630	4162.19580	2248.50708	1118.33508	
65	0.640	4162.28174	2249.65405	1117.90881	
66	0.650	
67	0.660	
68	0.670	
69	0.680	
70	0.690	4165.18311	2257.20239	1118.67139	
71	0.700	4165.45654	2258.54810	1118.12097	
72	0.710	
73	0.720	4167.34229	2261.82813	1119.96167	
74	0.730	4167.71631	2263.23462	1119.32446	
75	0.740	4167.96436	2264.61230	1118.65356	
76	0.750	4168.08838	2264.99463	1118.62720	
77	0.760	4169.78711	2268.65723	1119.52673	
78	0.770	4170.59473	2269.22168	1119.31030	
79	0.780	4170.96777	2270.86182	1119.96228	
80	0.790	
81	0.800	4172.51758	2271.24390	1119.45068	
82	0.810	
83	0.820	
84	0.830	4175.27197	2274.65308	1119.64917	
85	0.840	4175.68604	2274.98682	1119.40417	
86	0.850	4176.25684	2276.15991	1118.65149	
87	0.860	4177.63086	2276.72266	1119.08276	
88	0.870	
89	0.880	4179.98828	2279.51758	1120.02991	
90	0.890	4180.28662	2280.65747	1119.46033	
91	0.900	4180.59668	2280.95825	1119.28687	
92	0.910	4180.86279	2281.94702	1118.81848	
93	0.920	4180.89160	2282.18237	1118.67761	
94	0.930	4182.07275	2282.24902	1118.43616	
95	0.940	
96	0.950	
97	0.960	
98	0.970	
99	0.980	
100	0.990	
101	1.000	
102	1.010	
103	1.020	
104	1.030	
105	1.040	
106	1.050	
107	1.060	
108	1.070	
109	1.080	
110	1.090	4181.36963	2282.64380	1119.06506	
111	1.100	4181.60596	2283.78711	1119.85266	
112	1.110	4181.18799	2282.67920	1119.09070	
113	1.120	4181.19873	2282.69482	1119.10388	
114	1.130	4181.17969	2282.70020	1119.12097	
115	1.140	4182.82129	2283.51392	1119.56812	
116	1.150	4182.94141	2283.51074	1119.48022	
117	1.160	
118	1.170	
119	1.180	
120	1.190	
121	1.200	
122	1.210	
123	1.220	
124	1.230	
125	1.240	
126	1.250	
127	1.260	
128	1.270	
129	1.280	
130	1.290	
131	1.300	
132	1.310	
133	1.320	
134	1.330	
135	1.340	
136	1.350	
137	1.360	
138	1.370	
139	1.380	
140	1.390	
141	1.400	
142	1.410	
143	1.420	
144	1.430	4205.45947	2272.02393	1124.50305	
145	1.440	4207.44531	2271.05322	1124.86328	
146	1.450	
147	1.460	
148	1.470	
149	1.480	
150	1.490	
151	1.500	
152	1.510	
153	1.520	
154	1.530	
155	1.540	
156	1.550	4213.97168	2267.34277	1123.91650	
157	1.560	4214.77148	2268.17114	1123.31421	
158	1.570	4216.03809	2267.29272	1121.61963	
159	1.580	4217.79785	2267.73413	1123.44165	
160	1.590	4218.15479	2267.72656	1123.37097	
161	1.600	4219.97949	2266.93945	1123.84473	
162	1.610	4220.13477	2266.94165	1123.79041	
163	1.620	
164	1.630	
165	1.640	
166	1.650	
167	1.660	
168	1.670	
169	1.680	
170	1.690	
171	1.700	
172	1.710	
173	1.720	
174	1.730	
175	1.740	
176	1.750	
177	1.760	
178	1.770	
179	1.780	
180	1.790	
181	1.800	
182	1.810	
183	1.820	
184	1.830	
185	1.840	
186	1.850	
187	1.860	
188	1.870	
189	1.880	
190	1.890	
191	1.900	
192	1.910	
193	1.920	
194	1.930	
195	1.940	
196	1.950	
197	1.960	
198	1.970	
199	1.980	
200	1.990	4213.85400	2260.05396	1125.55566	
201	2.000	
202	2.010	
203	2.020	
204	2.030	
205	2.040	
206	2.050	
207	2.060	
208	2.070	
209	2.080	
210	2.090	
211	2.100	
212	2.110	
213	2.120	
214	2.130	
215	2.140	
216	2.150	
217	2.160	
218	2.170	
219	2.180	
220	2.190	
221	2.200	
222	2.210	
223	2.220	
224	2.230	
225	2.240	
226	2.250	
227	2.260	
228	2.270	4212.77930	2258.79004	1122.76563	
229	2.280	4212.82275	2259.37231	1124.54382	
230	2.290	
231	2.300	
232	2.310	
233	2.320	
234	2.330	
235	2.340	
236	2.350	
237	2.360	
238	2.370	
239	2.380	
240	2.390	
241	2.400	
242	2.410	
243	2.420	
244	2.430	
245	2.440	
246	2.450	
247	2.460	
248	2.470	
249	2.480	
250	2.490	
251	2.500	
252	2.510	
253	2.520	
254	2.530	
255	2.540	
256	2.550	
257	2.560	
258	2.570	
259	2.580	
260	2.590	
261	2.600	
262	2.610	
263	2.620	
264	2.630	
265	2.640	
266	2.650	
267	2.660	
268	2.670	
269	2.680	
270	2.690	
271	2.700	
272	2.710	
273	2.720	
274	2.730	
275	2.740	
276	2.750	
277	2.760	
278	2.770	
279	2.780	
280	2.790	
281	2.800	
282	2.810	
283	2.820	
284	2.830	
285	2.840	
286	2.850	
287	2.860	
288	2.870	
289	2.880	
290	2.890	
291	2.900	4209.20996	2259.80078	1122.47168	
292	2.910	
293	2.920	
294	2.930	
295	2.940	
296	2.950	
297	2.960	
298	2.970	
299	2.980	
300	2.990	
301	3.000	
302	3.010	
303	3.020	
304	3.030	
305	3.040	
306	3.050	
307	3.060	
308	3.070	
309	3.080	
310	3.090	
311	3.100	
312	3.110	
313	3.120	
314	3.130	
315	3.140	
316	3.150	
317	3.160	
318	3.170	
319	3.180	
320	3.190	
321	3.200	
322	3.210	
323	3.220	
324	3.230	
325	3.240	
326	3.250	
327	3.260	
328	3.270	
329	3.280	
330	3.290	
331	3.300	
332	3.310	
333	3.320	
334	3.330	
335	3.340	
336	3.350	
337	3.360	
338	3.370	
339	3.380	
340	3.390	
341	3.400	
342	3.410	
343	3.420	
344	3.430	
345	3.440	
346	3.450	
347	3.460	
348	3.470	
349	3.480	
350	3.490	
351	3.500	
352	3.510	
353	3.520	
354	3.530	
355	3.540	
356	3.550	4180.22070	2250.69116	1124.69348	
357	3.560	
358	3.570	
359	3.580	4178.91455	2249.92554	1123.89001	
360	3.590	4178.71191	2249.84326	1123.90125	
361	3.600	4178.54541	2249.60132	1124.08496	
362	3.610	4177.42236	2248.29590	1123.34009	
363	3.620	4177.35352	2248.14941	1123.43604	
364	3.630	
365	3.640	4177.17627	2248.11963	1123.51135	
366	3.650	4176.38721	2246.64624	1123.77368	
367	3.660	4176.16162	2246.53833	1123.88525	
368	3.670	4176.05469	2246.41406	1123.90833	
369	3.680	4175.85498	2246.24829	1124.06970	
370	3.690	4175.59375	2246.18945	1124.19177	
371	3.700	4175.83203	2245.44067	1123.54468	
372	3.710	4172.90771	2245.40039	1123.55652	
373	3.720	4174.66260	2243.91919	1123.43115	
374	3.730	4174.63818	2243.85742	1123.39404	
375	3.740	4173.74365	2243.99854	1122.81543	
376	3.750	4174.29590	2243.58740	1123.49365	
377	3.760	4174.20361	2243.49829	1123.51160	
378	3.770	
379	3.780	
380	3.790	
381	3.800	
382	3.810	
383	3.820	
384	3.830	
385	3.840	
386	3.850	
387	3.860	
388	3.870	
389	3.880	
390	3.890	
391	3.900	
392	3.910	
393	3.920	
394	3.930	
395	3.940	
396	3.950	
397	3.960	4162.73047	2234.76733	1117.71021	
398	3.970	
399	3.980	4162.27881	2232.21338	1118.04834	
400	3.990	4161.96191	2232.06372	1118.18372	
401	4.000	4161.63477	2230.97217	1119.24426	
402	4.010	
403	4.020	
404	4.030	
405	4.040	
406	4.050	
407	4.060	
408	4.070	
409	4.080	
410	4.090	
411	4.100	
412	4.110	
413	4.120	
414	4.130	
415	4.140	
416	4.150	
417	4.160	
418	4.170	
419	4.180	
420	4.190	
421	4.200	4153.56982	2221.57935	1124.30908	
422	4.210	
423	4.220	
424	4.230	
425	4.240	
426	4.250	
427	4.260	
428	4.270	
429	4.280	
430	4.290	
431	4.300	
432	4.310	
433	4.320	
434	4.330	
435	4.340	
436	4.350	
437	4.360	
438	4.370	
439	4.380	
440	4.390	
441	4.400	
442	4.410	
443	4.420	
444	4.430	
445	4.440	
446	4.450	
447	4.460	
448	4.470	
449	4.480	
450	4.490	
451	4.500	
452	4.510	
453	4.520	
454	4.530	
455	4.540	
456	4.550	
457	4.560	
458	4.570	
459	4.580	
460	4.590	
461	4.600	
462	4.610	4151.25586	2216.99585	1120.84021	
463	4.620	4149.21240	2218.56860	1119.50708	
464	4.630	
465	4.640	4151.94482	2216.74609	1121.45703	
466	4.650	
467	4.660	
468	4.670	4149.62451	2217.28540	1120.08655	
469	4.680	4149.70020	2218.45068	1122.34448	
470	4.690	4147.94727	2218.30420	1119.98828	
471	4.700	4149.22510	2218.20264	1121.99854	
472	4.710	4149.36865	2214.84497	1122.11707	
